<?xml version="1.0" encoding="UTF-8"?>
<svg id="Capa_1" data-name="Capa 1" xmlns="http://www.w3.org/2000/svg" width="149" height="28" xmlns:xlink="http://www.w3.org/1999/xlink" viewBox="0 0 149 28">
  <defs>
    <style>
      .cls-1 {
        fill: #222a36;
      }

      .cls-2 {
        fill: url(#Degradado_sin_nombre_25);
      }
    </style>
    <linearGradient id="Degradado_sin_nombre_25" data-name="Degradado sin nombre 25" x1="17.9841" y1="26.3478" x2="17.9841" y2=".0396" gradientUnits="userSpaceOnUse">
      <stop offset="0" stop-color="#01389d"/>
      <stop offset="1" stop-color="#0086de"/>
    </linearGradient>
  </defs>
  <path class="cls-2" d="M31.6533,17.4312v-.9779h.4856v-.9866h-.4856v-1.7725h-1.0231v1.7725h-1.4524l1.977-4.3831h-1.1273l-2.029,4.4355v.9342h2.6317v.9779h1.0231ZM22.023,17.4312v-.9779h.4855v-.9866h-.4855v-1.7725h-1.0232v1.7725h-1.4524l1.977-4.3831h-1.1273l-2.029,4.4355v.9342h2.6317v.9779h1.0232ZM25.1885,11.0006c-.6069,0-1.0659.1601-1.3765.4802-.3107.3202-.4661.7611-.4661,1.3228v2.8856c0,.553.1539.9917.4617,1.3162.3079.3245.7681.4868,1.3809.4868.607,0,1.0658-.16,1.3765-.4802.3107-.3201.4661-.761.4661-1.3228v-2.8856c0-.5646-.1547-1.0063-.4639-1.325-.3093-.3187-.7689-.478-1.3787-.478ZM25.9949,15.5365c0,.2968-.0629.5305-.1886.7006-.1257.1703-.3317.2554-.6178.2554s-.4921-.0851-.6178-.2554c-.1257-.1702-.1886-.4038-.1886-.7006v-2.5801c0-.2997.0629-.5341.1886-.7029.1257-.1688.3317-.2532.6178-.2532s.4921.0844.6178.2532c.1257.1688.1886.4031.1886.7029v2.5801ZM32.9457,21.7414h-13.198c-1.1718-.0021-2.2011-.5859-2.8406-1.4727h3.1112l.6789-.8997,5.2285.0064c.1253.3063.4233.5224.7727.5224.4622,0,.8369-.3773.8369-.8427s-.3747-.8427-.8369-.8427c-.3375,0-.6245.2037-.7568.4933v-.0011l-5.5742-.0032-.6821.7836h-3.2076c-.1579-.4049-.2507-.843-.2493-1.3044.0941-.428-.2568-2.3599.3276-2.5556.2158-.0894.3875-.2216.5388-.3694.0227-.0214.04-.0454.0612-.0678.084-.0916.1609-.1856.2218-.2908.0308-.0519.0527-.1061.0775-.1605.0392-.0875.0757-.1737.1001-.2658.0165-.0621.0247-.1242.0341-.1877.0145-.0953.0255-.1888.0245-.285-.0008-.0555-.0082-.1091-.0141-.1642-.0107-.1031-.0261-.2033-.0551-.3032-.0157-.0545-.0386-.1052-.0596-.1582-.0356-.0886-.0729-.1745-.124-.2567-.0456-.0757-.1032-.1425-.161-.2111-.0402-.046-.0761-.0932-.1222-.1354-.1068-.1019-.2319-.187-.3702-.2618-.006-.0031-.0098-.0082-.0159-.0112-.0106-.0041-.0194-.0116-.0298-.0161-.0391-.0197-.0685-.0486-.1099-.0658-.0829-.0431-.144-.1119-.1974-.1849-.0215-.0316-.0405-.0648-.0555-.1-.0146-.0317-.0192-.0665-.0283-.1005-.0091-.0421-.0212-.083-.02-.1284,0,0-.0004,0-.0164-.0009-.0002-.0056-.0044-.01-.0044-.0156l-.0058-2.0252c-.0013-.4655.0921-.9076.2526-1.3154h3.2081l.6821.7836,5.5742-.0032v-.001c.1324.2897.4194.4933.7568.4933.4622,0,.8369-.3773.8369-.8427s-.3747-.8427-.8369-.8427c-.3494,0-.6473.2162-.7726.5224l-5.2286.0065-.6789-.8997h-3.1061c.6401-.8802,1.665-1.4596,2.8318-1.4617h13.1979c1.6669,0,3.0181-1.3607,3.0181-3.0391.0914-1.739-1.282-3.225-3.0181-3.2194h-12.0374c-7.1381.0522-11.3437,5.2104-12.2328,11.4634-.0069-.0004-.0125-.0007-.0193-.001-.013.0974-.0154.1942-.0269.2915-.0294.2357-.0457.4744-.0657.7128-.019.2374-.0418.4745-.0518.711-.0144.3241-.0129.6505-.0101.9779.0017.1711-.0012.3425.0053.5126.0144.3991.0475.7994.0875,1.2009.008.0763.0122.1536.0212.2296.015.1338.0192.267.037.4009.0095-.0005.0172-.0009.0267-.0014.8896,6.2526,5.0953,11.4101,12.2327,11.4623h12.0375c1.7361.0056,3.1096-1.4805,3.0182-3.2195,0-1.6785-1.3513-3.0391-3.0182-3.0391ZM6.7206,6.3875h-1.6838v1.8746h1.6838v-1.8746ZM2.6815,10.6161h1.4416v-1.4516h-1.4416v1.4516ZM2.6815,4.3576H0v2.7001h2.6815v-2.7001ZM9.3054,2.483h-1.6838v1.8746h1.6838v-1.8746ZM8.2493,26.2249h2.1691v-2.1841h-2.1691v2.1841ZM5.824,12.0537h-1.9812v1.995h1.9812v-1.995ZM.1025,15.115h1.5713v-1.5822H.1025v1.5822ZM5.3458,21.3923h2.7498v-2.7689h-2.7498v2.7689ZM2.1349,17.5027h1.5343v-1.545h-1.5343v1.545Z"/>
  <g>
    <path class="cls-1" d="M38.9072,22.6074V4.104h3.4629v18.5034h-3.4629ZM40.1582,7.4634v-3.3594h11.0581v3.3594h-11.0581ZM40.1582,15.0996v-3.3604h9.668v3.3604h-9.668ZM40.1582,22.6074v-3.3594h11.0581v3.3594h-11.0581Z"/>
    <path class="cls-1" d="M55.0288,22.6074v-13.2095h3.7158v13.2095h-3.7158ZM62.4092,13.0757c-.1597-.1699-.3643-.2969-.6128-.3818s-.5327-.1274-.853-.1274c-.6992,0-1.2407.2271-1.624.6802-.3833.4551-.5747,1.085-.5747,1.8911l-.2656-3.4365c.3623-.7803.832-1.3911,1.4092-1.8325.5771-.4409,1.2109-.6616,1.9019-.6616.5479,0,1.043.0869,1.4849.2607.4424.1738.8281.4307,1.1567.77l-2.0225,2.8379Z"/>
    <path class="cls-1" d="M66.98,22.6074v-13.2095h3.7158v13.2095h-3.7158ZM74.3604,13.0757c-.1597-.1699-.3643-.2969-.6128-.3818s-.5327-.1274-.853-.1274c-.6992,0-1.2407.2271-1.624.6802-.3833.4551-.5747,1.085-.5747,1.8911l-.2656-3.4365c.3623-.7803.832-1.3911,1.4092-1.8325.5771-.4409,1.2109-.6616,1.9019-.6616.5479,0,1.043.0869,1.4854.2607s.8271.4307,1.1562.77l-2.0225,2.8379Z"/>
    <path class="cls-1" d="M83.9609,22.7979c-1.8027,0-3.1973-.502-4.1826-1.5078-.9863-1.0049-1.4785-2.4199-1.4785-4.2441v-2.1509c0-1.8066.4922-3.2065,1.4785-4.1992.9854-.9927,2.3799-1.4888,4.1826-1.4888s3.1973.4961,4.1826,1.4888c.9863.9927,1.4795,2.3926,1.4795,4.1992v2.1899c0,1.8154-.4932,3.2217-1.4795,4.2178-.9854.9971-2.3799,1.4951-4.1826,1.4951ZM83.9482,19.4385c.6992,0,1.2432-.2051,1.6299-.6172.3877-.4111.582-.9902.582-1.7363v-2.1899c0-.7383-.1943-1.3105-.582-1.7178-.3867-.4072-.9307-.6108-1.6299-.6108-.6904,0-1.2275.2036-1.6113.6108s-.5752.9795-.5752,1.7178v2.1899c0,.7461.1914,1.3252.5752,1.7363.3838.4121.9209.6172,1.6113.6172Z"/>
    <path class="cls-1" d="M93.6885,22.6074v-13.2095h3.7148v13.2095h-3.7148ZM101.0684,13.0757c-.1602-.1699-.3643-.2969-.6123-.3818-.249-.085-.5332-.1274-.8535-.1274-.6992,0-1.2402.2271-1.624.6802-.3828.4551-.5752,1.085-.5752,1.8911l-.2646-3.4365c.3613-.7803.8311-1.3911,1.4092-1.8325.5762-.4409,1.2109-.6616,1.9014-.6616.5479,0,1.043.0869,1.4854.2607s.8271.4307,1.1562.77l-2.0225,2.8379Z"/>
    <path class="cls-1" d="M105.2607,19.7695v-3.207l5.6611-12.4458h3.918l-5.5107,12.2935h8.2529v3.3594h-12.3213ZM112.6787,22.6201v-10.8936h3.4629v10.8936h-3.4629Z"/>
    <path class="cls-1" d="M126.6387,22.7979c-1.8291,0-3.2021-.4727-4.1201-1.418-.9189-.9463-1.3779-2.2256-1.3779-3.8369v-8.4126c0-1.6372.4639-2.9224,1.3906-3.8555s2.2959-1.3999,4.1074-1.3999c1.8193,0,3.1904.4644,4.1133,1.3936.9229.9287,1.3838,2.2163,1.3838,3.8618v8.4126c0,1.6367-.4639,2.9229-1.3906,3.8555-.9268.9336-2.2959,1.3994-4.1064,1.3994ZM126.6387,19.4385c.7246,0,1.2441-.248,1.5605-.7441.3154-.4961.4736-1.1768.4736-2.043v-6.6299c0-.874-.1582-1.5566-.4736-2.0488-.3164-.4922-.8359-.7383-1.5605-.7383-.7168,0-1.2344.2461-1.5547.7383s-.4805,1.1748-.4805,2.0488v6.6299c0,.8662.1602,1.5469.4805,2.043s.8379.7441,1.5547.7441Z"/>
    <path class="cls-1" d="M136.0752,19.7695v-3.207l5.6611-12.4458h3.918l-5.5107,12.2935h8.2529v3.3594h-12.3213ZM143.4932,22.6201v-10.8936h3.4629v10.8936h-3.4629Z"/>
  </g>
</svg>